<svg width="46" height="46" viewBox="0 0 46 46" fill="none" xmlns="http://www.w3.org/2000/svg">
<path d="M22 0C12.059 0 4 8.17874 4 18.2675C4 27.4196 15.2149 39.4609 19.941 44.1293C21.0986 45.2703 22.9288 45.2941 24.1088 44.1759C28.8633 39.6782 40 28.0913 40 18.2665C39.999 8.17874 31.941 0 22 0Z" fill="#E28703"/>
<circle cx="22" cy="17" r="13" fill="white"/>
<g clip-path="url(#clip0)">
<path d="M16.3334 12.6666L26.9372 12.6284C27.6039 11.9617 27.6039 9.96173 25.9372 9.96173C25.9372 9.29506 24.9372 7.96173 23.6039 8.6284C23.6039 6.96173 20.2705 6.96173 20.2705 8.29506C18.9372 7.6284 18.2705 8.55808 18.2705 9.29506C17.2705 8.96173 16.2705 9.6284 16.6039 10.6284C15.6039 10.9617 15.2705 11.9617 16.2705 12.6284" fill="white"/>
<path d="M17.2709 9.2887L17.2603 9.29218L17.2705 9.29496L17.2709 9.2887Z" fill="#E0E0E0"/>
<path d="M25.9648 9.96167C26.3333 10.6665 26.6315 11.9617 25.9648 12.6283H26.9648C27.6315 11.9617 27.3333 9.99986 25.9648 9.96167Z" fill="#C9C8C7"/>
<path d="M23.6236 8.62016C23.6165 8.61607 23.6097 8.61168 23.6025 8.60767C23.6027 8.61473 23.6038 8.62124 23.6038 8.62836C23.6105 8.62502 23.6169 8.62342 23.6236 8.62016Z" fill="#F4F4F4"/>
<path d="M25.2224 26.6666H18.1113C17.6546 26.6809 17.211 26.5134 16.8777 26.2009C16.5444 25.8885 16.3487 25.4566 16.3335 25V12.6666H27.0002V25C26.985 25.4566 26.7892 25.8885 26.4559 26.2009C26.1227 26.5134 25.679 26.6809 25.2224 26.6666Z" fill="#FEAC02"/>
<path d="M17.6668 12.9999V24.9999C17.6668 26.1044 18.4628 26.9999 19.4446 26.9999H18.1113C17.1294 26.9999 16.3335 26.1044 16.3335 24.9999V12.9999H17.6668Z" fill="#FFB15C"/>
<path d="M25.6667 12.6666V24.6666C25.6667 25.7712 24.8707 26.6666 23.8889 26.6666H25.2222C26.2041 26.6666 27 25.7712 27 24.6666V12.6666H25.6667Z" fill="#E28703"/>
<path d="M27 16.3332H29.25C29.4377 16.3229 29.6219 16.3871 29.7624 16.512C29.9029 16.6369 29.9883 16.8123 30 16.9999V23.9999C29.9883 24.1875 29.9029 24.3629 29.7624 24.4878C29.6219 24.6127 29.4377 24.677 29.25 24.6666H27V23.3332H28.25C28.3492 23.343 28.4483 23.3136 28.5262 23.2514C28.604 23.1891 28.6544 23.0989 28.6667 22.9999V17.9999C28.6544 17.901 28.604 17.8107 28.5262 17.7485C28.4483 17.6862 28.3492 17.6568 28.25 17.6666H27V16.3332Z" fill="white"/>
<path d="M19.0001 11.6665C18.9563 11.6666 18.913 11.6579 18.8725 11.6412C18.8321 11.6244 18.7953 11.5999 18.7644 11.5689C18.7334 11.538 18.7088 11.5012 18.6921 11.4608C18.6754 11.4203 18.6667 11.377 18.6667 11.3332C18.6667 10.5979 19.4145 9.99988 20.3334 9.99988C20.4218 9.99988 20.5066 10.035 20.5691 10.0975C20.6316 10.16 20.6667 10.2448 20.6667 10.3332C20.6667 10.4216 20.6316 10.5064 20.5691 10.5689C20.5066 10.6314 20.4218 10.6665 20.3334 10.6665C19.7914 10.6665 19.3334 10.9719 19.3334 11.3332C19.3334 11.377 19.3248 11.4203 19.3081 11.4608C19.2913 11.5012 19.2668 11.538 19.2358 11.5689C19.2049 11.5999 19.1681 11.6244 19.1277 11.6412C19.0872 11.6579 19.0439 11.6666 19.0001 11.6665Z" fill="#C9C8C7"/>
<path d="M24.3335 11.6666C24.2897 11.6666 24.2464 11.658 24.2059 11.6412C24.1655 11.6245 24.1287 11.5999 24.0978 11.569C24.0668 11.538 24.0423 11.5013 24.0255 11.4608C24.0088 11.4204 24.0002 11.377 24.0002 11.3333C24.0001 11.2449 23.9649 11.1601 23.9024 11.0976C23.8399 11.0352 23.7552 11 23.6668 10.9999C23.5784 10.9999 23.4936 10.9648 23.4311 10.9023C23.3686 10.8398 23.3335 10.755 23.3335 10.6666C23.3335 10.5782 23.3686 10.4934 23.4311 10.4309C23.4936 10.3684 23.5784 10.3333 23.6668 10.3333C23.932 10.3335 24.1861 10.439 24.3736 10.6265C24.5611 10.8139 24.6665 11.0681 24.6668 11.3333C24.6668 11.377 24.6582 11.4204 24.6415 11.4608C24.6247 11.5013 24.6002 11.538 24.5692 11.569C24.5383 11.5999 24.5015 11.6245 24.4611 11.6412C24.4206 11.658 24.3773 11.6666 24.3335 11.6666Z" fill="#C9C8C7"/>
<path d="M22.3335 9.66663C22.2576 9.66659 22.184 9.64068 22.1248 9.59315C22.0656 9.54563 22.0244 9.47934 22.008 9.40523C21.9021 9.35307 21.7848 9.32834 21.6668 9.33329C21.5784 9.33329 21.4936 9.29817 21.4311 9.23566C21.3686 9.17315 21.3335 9.08836 21.3335 8.99996C21.3335 8.91155 21.3686 8.82677 21.4311 8.76426C21.4936 8.70174 21.5784 8.66663 21.6668 8.66663C22.2463 8.66663 22.6668 8.9469 22.6668 9.33329C22.6668 9.37707 22.6582 9.42042 22.6415 9.46087C22.6247 9.50131 22.6002 9.53807 22.5692 9.56902C22.5383 9.59998 22.5015 9.62453 22.4611 9.64128C22.4206 9.65802 22.3773 9.66664 22.3335 9.66663Z" fill="#C9C8C7"/>
<mask id="path-14-inside-1" fill="white">
<path d="M29.25 16.0001H27.3333V12.7831C27.5478 12.4806 27.6841 12.1296 27.7299 11.7616C27.7757 11.3935 27.7297 11.0198 27.5958 10.6739C27.4904 10.405 27.3127 10.1703 27.0824 9.9959C26.8521 9.82146 26.5781 9.71398 26.2907 9.68531C26.1356 9.16411 25.7962 8.71715 25.3357 8.42783C25.1287 8.29669 24.8968 8.2099 24.6546 8.17292C24.4123 8.13594 24.165 8.14958 23.9283 8.21298C23.8108 7.87483 23.5773 7.58921 23.2693 7.40666C22.8427 7.15652 22.3553 7.02901 21.8608 7.03818C21.0006 7.03818 20.3442 7.36663 20.1017 7.8764C19.8788 7.78787 19.6387 7.75127 19.3996 7.76938C19.1605 7.78748 18.9286 7.85982 18.7216 7.98089C18.3848 8.19937 18.1447 8.53879 18.0507 8.92914C17.7994 8.8907 17.5427 8.90988 17.2998 8.98522C17.057 9.06056 16.8345 9.19009 16.649 9.36403C16.5054 9.50611 16.3972 9.67993 16.3331 9.87149C16.2689 10.063 16.2507 10.267 16.2797 10.4669C16.0551 10.5655 15.8581 10.7177 15.7059 10.91C15.5537 11.1024 15.451 11.3291 15.4067 11.5704C15.3847 11.8146 15.428 12.0603 15.5323 12.2823C15.6366 12.5043 15.798 12.6945 16 12.8335V25.0001C16.0157 25.5449 16.2467 26.0613 16.6424 26.4362C17.0381 26.8111 17.5662 27.0138 18.1111 27.0001H25.2221C25.767 27.0138 26.2951 26.8111 26.6908 26.4362C27.0865 26.0613 27.3176 25.5449 27.3333 25.0001H29.25C29.526 25.0104 29.7949 24.911 29.9979 24.7236C30.2009 24.5362 30.3215 24.2761 30.3333 24.0001V17.0001C30.3215 16.7241 30.2009 16.464 29.9979 16.2766C29.7949 16.0892 29.526 15.9898 29.25 16.0001ZM26.6666 14.6668H16.6666V13.0001H26.6666V14.6668ZM27.3333 18.0001H28.25C28.3007 18.0004 28.3328 18.0196 28.3333 18.0008L28.341 22.9715C28.3153 22.992 28.2828 23.0022 28.25 23.0001H27.3333V18.0001ZM16.7721 10.9828C16.8136 10.969 16.852 10.9472 16.8851 10.9185C16.9182 10.8898 16.9453 10.8549 16.9649 10.8158C16.9844 10.7766 16.9961 10.734 16.9992 10.6903C17.0023 10.6467 16.9967 10.6028 16.9829 10.5613C16.9319 10.4402 16.9177 10.3068 16.9422 10.1778C16.9666 10.0487 17.0286 9.9297 17.1204 9.83571C17.2714 9.70827 17.4538 9.62376 17.6486 9.591C17.8434 9.55824 18.0435 9.57845 18.2278 9.64951C18.2779 9.66627 18.3313 9.67086 18.3835 9.66293C18.4357 9.655 18.4853 9.63476 18.5282 9.60388C18.5711 9.573 18.606 9.53238 18.63 9.48536C18.6541 9.43833 18.6666 9.38626 18.6666 9.33343C18.6652 9.1794 18.7014 9.02734 18.772 8.89046C18.8427 8.75358 18.9457 8.63601 19.0721 8.54795C19.249 8.46532 19.4443 8.42962 19.6391 8.44427C19.8339 8.45892 20.0216 8.52344 20.1842 8.63162C20.235 8.65702 20.2915 8.66901 20.3483 8.66646C20.405 8.6639 20.4602 8.64687 20.5085 8.617C20.5569 8.58712 20.5968 8.54539 20.6244 8.49576C20.6521 8.44613 20.6666 8.39025 20.6666 8.33343C20.6666 7.92523 21.2819 7.70485 21.8608 7.70485C22.2301 7.69697 22.5947 7.78921 22.9158 7.97178C23.0414 8.03942 23.1465 8.13966 23.22 8.26196C23.2934 8.38426 23.3326 8.5241 23.3333 8.66677C23.3333 8.72359 23.3478 8.77946 23.3755 8.82909C23.4032 8.87872 23.4431 8.92045 23.4914 8.95033C23.5397 8.9802 23.5949 8.99723 23.6517 8.99978C23.7084 9.00234 23.7649 8.99035 23.8157 8.96494C23.9951 8.86352 24.1986 8.81274 24.4046 8.81801C24.6106 8.82329 24.8112 8.88442 24.9852 8.99489C25.1645 9.10336 25.3183 9.24937 25.4359 9.42288C25.5536 9.59639 25.6323 9.7933 25.6666 10.0001C25.6666 10.0439 25.6752 10.0872 25.692 10.1277C25.7087 10.1681 25.7333 10.2049 25.7642 10.2358C25.7952 10.2668 25.8319 10.2913 25.8724 10.3081C25.9128 10.3248 25.9562 10.3334 26 10.3334C26.2056 10.3142 26.4121 10.3617 26.5886 10.469C26.7651 10.5763 26.9024 10.7377 26.9799 10.9291C27.0653 11.1583 27.0973 11.4039 27.0734 11.6472C27.0495 11.8906 26.9704 12.1253 26.8421 12.3334H16.4481C16.33 12.2654 16.2323 12.1669 16.1653 12.0482C16.0983 11.9295 16.0645 11.7949 16.0673 11.6586C16.1121 11.4925 16.2014 11.3417 16.3256 11.2226C16.4498 11.1035 16.6042 11.0206 16.7721 10.9828ZM25.2221 26.3334H18.1111C17.743 26.3472 17.3844 26.2147 17.1138 25.9648C16.8431 25.715 16.6823 25.3681 16.6666 25.0001V15.3334H26.6666V25.0001C26.6509 25.3681 26.4902 25.715 26.2195 25.9648C25.9488 26.2147 25.5902 26.3472 25.2221 26.3334ZM29.6666 24.0001C29.6543 24.099 29.6039 24.1892 29.5261 24.2515C29.4482 24.3137 29.3492 24.3431 29.25 24.3334H27.3333V23.6668H28.25C28.4376 23.6769 28.6217 23.6126 28.7621 23.4877C28.9026 23.3629 28.9881 23.1876 29 23.0001V18.0001C28.9881 17.8126 28.9026 17.6373 28.7621 17.5125C28.6217 17.3876 28.4376 17.3233 28.25 17.3334H27.3333V16.6668H29.25C29.3492 16.6571 29.4482 16.6865 29.5261 16.7487C29.6039 16.811 29.6543 16.9012 29.6666 17.0001V24.0001Z"/>
</mask>
<path d="M29.25 16.0001H27.3333V12.7831C27.5478 12.4806 27.6841 12.1296 27.7299 11.7616C27.7757 11.3935 27.7297 11.0198 27.5958 10.6739C27.4904 10.405 27.3127 10.1703 27.0824 9.9959C26.8521 9.82146 26.5781 9.71398 26.2907 9.68531C26.1356 9.16411 25.7962 8.71715 25.3357 8.42783C25.1287 8.29669 24.8968 8.2099 24.6546 8.17292C24.4123 8.13594 24.165 8.14958 23.9283 8.21298C23.8108 7.87483 23.5773 7.58921 23.2693 7.40666C22.8427 7.15652 22.3553 7.02901 21.8608 7.03818C21.0006 7.03818 20.3442 7.36663 20.1017 7.8764C19.8788 7.78787 19.6387 7.75127 19.3996 7.76938C19.1605 7.78748 18.9286 7.85982 18.7216 7.98089C18.3848 8.19937 18.1447 8.53879 18.0507 8.92914C17.7994 8.8907 17.5427 8.90988 17.2998 8.98522C17.057 9.06056 16.8345 9.19009 16.649 9.36403C16.5054 9.50611 16.3972 9.67993 16.3331 9.87149C16.2689 10.063 16.2507 10.267 16.2797 10.4669C16.0551 10.5655 15.8581 10.7177 15.7059 10.91C15.5537 11.1024 15.451 11.3291 15.4067 11.5704C15.3847 11.8146 15.428 12.0603 15.5323 12.2823C15.6366 12.5043 15.798 12.6945 16 12.8335V25.0001C16.0157 25.5449 16.2467 26.0613 16.6424 26.4362C17.0381 26.8111 17.5662 27.0138 18.1111 27.0001H25.2221C25.767 27.0138 26.2951 26.8111 26.6908 26.4362C27.0865 26.0613 27.3176 25.5449 27.3333 25.0001H29.25C29.526 25.0104 29.7949 24.911 29.9979 24.7236C30.2009 24.5362 30.3215 24.2761 30.3333 24.0001V17.0001C30.3215 16.7241 30.2009 16.464 29.9979 16.2766C29.7949 16.0892 29.526 15.9898 29.25 16.0001ZM26.6666 14.6668H16.6666V13.0001H26.6666V14.6668ZM27.3333 18.0001H28.25C28.3007 18.0004 28.3328 18.0196 28.3333 18.0008L28.341 22.9715C28.3153 22.992 28.2828 23.0022 28.25 23.0001H27.3333V18.0001ZM16.7721 10.9828C16.8136 10.969 16.852 10.9472 16.8851 10.9185C16.9182 10.8898 16.9453 10.8549 16.9649 10.8158C16.9844 10.7766 16.9961 10.734 16.9992 10.6903C17.0023 10.6467 16.9967 10.6028 16.9829 10.5613C16.9319 10.4402 16.9177 10.3068 16.9422 10.1778C16.9666 10.0487 17.0286 9.9297 17.1204 9.83571C17.2714 9.70827 17.4538 9.62376 17.6486 9.591C17.8434 9.55824 18.0435 9.57845 18.2278 9.64951C18.2779 9.66627 18.3313 9.67086 18.3835 9.66293C18.4357 9.655 18.4853 9.63476 18.5282 9.60388C18.5711 9.573 18.606 9.53238 18.63 9.48536C18.6541 9.43833 18.6666 9.38626 18.6666 9.33343C18.6652 9.1794 18.7014 9.02734 18.772 8.89046C18.8427 8.75358 18.9457 8.63601 19.0721 8.54795C19.249 8.46532 19.4443 8.42962 19.6391 8.44427C19.8339 8.45892 20.0216 8.52344 20.1842 8.63162C20.235 8.65702 20.2915 8.66901 20.3483 8.66646C20.405 8.6639 20.4602 8.64687 20.5085 8.617C20.5569 8.58712 20.5968 8.54539 20.6244 8.49576C20.6521 8.44613 20.6666 8.39025 20.6666 8.33343C20.6666 7.92523 21.2819 7.70485 21.8608 7.70485C22.2301 7.69697 22.5947 7.78921 22.9158 7.97178C23.0414 8.03942 23.1465 8.13966 23.22 8.26196C23.2934 8.38426 23.3326 8.5241 23.3333 8.66677C23.3333 8.72359 23.3478 8.77946 23.3755 8.82909C23.4032 8.87872 23.4431 8.92045 23.4914 8.95033C23.5397 8.9802 23.5949 8.99723 23.6517 8.99978C23.7084 9.00234 23.7649 8.99035 23.8157 8.96494C23.9951 8.86352 24.1986 8.81274 24.4046 8.81801C24.6106 8.82329 24.8112 8.88442 24.9852 8.99489C25.1645 9.10336 25.3183 9.24937 25.4359 9.42288C25.5536 9.59639 25.6323 9.7933 25.6666 10.0001C25.6666 10.0439 25.6752 10.0872 25.692 10.1277C25.7087 10.1681 25.7333 10.2049 25.7642 10.2358C25.7952 10.2668 25.8319 10.2913 25.8724 10.3081C25.9128 10.3248 25.9562 10.3334 26 10.3334C26.2056 10.3142 26.4121 10.3617 26.5886 10.469C26.7651 10.5763 26.9024 10.7377 26.9799 10.9291C27.0653 11.1583 27.0973 11.4039 27.0734 11.6472C27.0495 11.8906 26.9704 12.1253 26.8421 12.3334H16.4481C16.33 12.2654 16.2323 12.1669 16.1653 12.0482C16.0983 11.9295 16.0645 11.7949 16.0673 11.6586C16.1121 11.4925 16.2014 11.3417 16.3256 11.2226C16.4498 11.1035 16.6042 11.0206 16.7721 10.9828ZM25.2221 26.3334H18.1111C17.743 26.3472 17.3844 26.2147 17.1138 25.9648C16.8431 25.715 16.6823 25.3681 16.6666 25.0001V15.3334H26.6666V25.0001C26.6509 25.3681 26.4902 25.715 26.2195 25.9648C25.9488 26.2147 25.5902 26.3472 25.2221 26.3334ZM29.6666 24.0001C29.6543 24.099 29.6039 24.1892 29.5261 24.2515C29.4482 24.3137 29.3492 24.3431 29.25 24.3334H27.3333V23.6668H28.25C28.4376 23.6769 28.6217 23.6126 28.7621 23.4877C28.9026 23.3629 28.9881 23.1876 29 23.0001V18.0001C28.9881 17.8126 28.9026 17.6373 28.7621 17.5125C28.6217 17.3876 28.4376 17.3233 28.25 17.3334H27.3333V16.6668H29.25C29.3492 16.6571 29.4482 16.6865 29.5261 16.7487C29.6039 16.811 29.6543 16.9012 29.6666 17.0001V24.0001Z" fill="#573706" stroke="#573706" stroke-width="2" mask="url(#path-14-inside-1)"/>
<path d="M18.9998 11.6668C19.0436 11.6668 19.087 11.6582 19.1274 11.6414C19.1679 11.6247 19.2046 11.6001 19.2356 11.5692C19.2665 11.5382 19.2911 11.5015 19.3078 11.461C19.3246 11.4206 19.3332 11.3772 19.3332 11.3335C19.3332 10.9721 19.7912 10.6668 20.3332 10.6668C20.4216 10.6668 20.5064 10.6317 20.5689 10.5692C20.6314 10.5066 20.6665 10.4219 20.6665 10.3335C20.6665 10.245 20.6314 10.1603 20.5689 10.0978C20.5064 10.0352 20.4216 10.0001 20.3332 10.0001C19.4142 10.0001 18.6665 10.5981 18.6665 11.3335C18.6665 11.3772 18.6751 11.4206 18.6919 11.461C18.7086 11.5015 18.7332 11.5382 18.7641 11.5692C18.7951 11.6001 18.8318 11.6247 18.8723 11.6414C18.9127 11.6582 18.9561 11.6668 18.9998 11.6668Z" fill="#573706"/>
<path d="M23.6666 11.0002C23.755 11.0003 23.8397 11.0354 23.9022 11.0979C23.9647 11.1604 23.9998 11.2451 23.9999 11.3335C23.9999 11.4219 24.035 11.5067 24.0975 11.5692C24.1601 11.6317 24.2448 11.6668 24.3333 11.6668C24.4217 11.6668 24.5064 11.6317 24.569 11.5692C24.6315 11.5067 24.6666 11.4219 24.6666 11.3335C24.6663 11.0684 24.5608 10.8142 24.3734 10.6267C24.1859 10.4392 23.9317 10.3338 23.6666 10.3335C23.5782 10.3335 23.4934 10.3686 23.4309 10.4311C23.3684 10.4936 23.3333 10.5784 23.3333 10.6668C23.3333 10.7552 23.3684 10.84 23.4309 10.9025C23.4934 10.965 23.5782 11.0002 23.6666 11.0002Z" fill="#573706"/>
<path d="M21.6666 9.33341C21.7845 9.32846 21.9018 9.35319 22.0077 9.40535C22.0255 9.48556 22.0722 9.5564 22.1389 9.60427C22.2057 9.65215 22.2878 9.67369 22.3694 9.66478C22.4511 9.65586 22.5266 9.61711 22.5814 9.55596C22.6362 9.49481 22.6666 9.41556 22.6666 9.33341C22.6666 8.94702 22.246 8.66675 21.6666 8.66675C21.5782 8.66675 21.4934 8.70187 21.4309 8.76438C21.3684 8.82689 21.3333 8.91168 21.3333 9.00008C21.3333 9.08849 21.3684 9.17327 21.4309 9.23578C21.4934 9.2983 21.5782 9.33341 21.6666 9.33341Z" fill="#573706"/>
</g>
<defs>
<clipPath id="clip0">
<rect width="20" height="20" fill="white" transform="translate(13 7)"/>
</clipPath>
</defs>
</svg>
