<svg width="24" height="24" viewBox="0 0 24 24" fill="none" xmlns="http://www.w3.org/2000/svg">
<path d="M22.2489 3.4814C21.0652 2.13825 19.423 1.39856 17.625 1.39856C15.0962 1.39856 13.4952 2.90887 12.5974 4.1759C12.3645 4.50468 12.1664 4.83436 12 5.14458C11.8336 4.83436 11.6355 4.50468 11.4026 4.1759C10.5048 2.90887 8.90381 1.39856 6.375 1.39856C4.57697 1.39856 2.9348 2.13829 1.75102 3.48145C0.621891 4.76273 0 6.47873 0 8.31332C0 10.3103 0.779672 12.1678 2.45367 14.1586C3.94978 15.938 6.10214 17.7721 8.59453 19.896C9.52327 20.6874 10.4837 21.5059 11.5062 22.4005L11.5369 22.4274C11.6694 22.5434 11.8347 22.6014 12 22.6014C12.1653 22.6014 12.3306 22.5434 12.4631 22.4274L12.4938 22.4005C13.5163 21.5059 14.4767 20.6875 15.4056 19.8959C17.8979 17.7722 20.0502 15.9381 21.5463 14.1586C23.2203 12.1677 24 10.3103 24 8.31332C24 6.47873 23.3781 4.76273 22.2489 3.4814Z" fill="#B02222"/>
</svg>
