<svg width="24" height="24" viewBox="0 0 24 24" fill="none" xmlns="http://www.w3.org/2000/svg">
<path d="M22.2489 3.4814C21.0652 2.13825 19.423 1.39856 17.625 1.39856C15.0962 1.39856 13.4952 2.90887 12.5974 4.1759C12.3645 4.50468 12.1664 4.83436 12 5.14458C11.8336 4.83436 11.6355 4.50468 11.4026 4.1759C10.5048 2.90887 8.90381 1.39856 6.375 1.39856C4.57697 1.39856 2.9348 2.13829 1.75102 3.48145C0.621891 4.76273 0 6.47873 0 8.31333C0 10.3103 0.779672 12.1678 2.45367 14.1586C3.94978 15.938 6.10214 17.7721 8.59453 19.896C9.52327 20.6874 10.4837 21.5059 11.5062 22.4005L11.5369 22.4274C11.6694 22.5434 11.8347 22.6014 12 22.6014C12.1653 22.6014 12.3306 22.5434 12.4631 22.4274L12.4938 22.4005C13.5163 21.5059 14.4767 20.6875 15.4056 19.8959C17.8979 17.7722 20.0502 15.9381 21.5463 14.1586C23.2203 12.1677 24 10.3103 24 8.31333C24 6.47873 23.3781 4.76273 22.2489 3.4814ZM14.4934 18.8257C13.6928 19.5079 12.8688 20.21 12 20.9653C11.1312 20.2101 10.3072 19.5079 9.50644 18.8256C4.62867 14.669 1.40625 11.923 1.40625 8.31333C1.40625 6.82129 1.90336 5.43548 2.80603 4.41122C3.71906 3.37533 4.98652 2.80481 6.375 2.80481C8.30292 2.80481 9.54919 3.99253 10.2551 4.9889C10.8884 5.88253 11.2188 6.78337 11.3315 7.12917C11.4257 7.41862 11.6956 7.61451 12 7.61451C12.3044 7.61451 12.5743 7.41862 12.6685 7.12917C12.7812 6.78337 13.1116 5.88253 13.7449 4.98886C14.4508 3.99253 15.6971 2.80481 17.625 2.80481C19.0135 2.80481 20.2809 3.37533 21.1939 4.41122C22.0966 5.43548 22.5938 6.82129 22.5938 8.31333C22.5938 11.923 19.3713 14.669 14.4934 18.8257Z" fill="#A9B3BD"/>
</svg>
